<svg width="18" height="21" viewBox="0 0 18 21" fill="none" xmlns="http://www.w3.org/2000/svg">
<path d="M15.3736 10.8001L9.19362 16.9901C8.38343 17.7101 7.32876 18.0934 6.24534 18.0615C5.16192 18.0296 4.13162 17.5849 3.36519 16.8185C2.59876 16.0521 2.15413 15.0218 2.12223 13.9384C2.09034 12.8549 2.4736 11.8003 3.19362 10.9901L11.1936 2.9901C11.6712 2.53639 12.3049 2.28343 12.9636 2.28343C13.6224 2.28343 14.256 2.53639 14.7336 2.9901C15.199 3.46169 15.4599 4.09756 15.4599 4.7601C15.4599 5.42263 15.199 6.0585 14.7336 6.53009L7.83362 13.4201C7.76533 13.4936 7.68323 13.553 7.59199 13.5948C7.50076 13.6366 7.40219 13.6601 7.3019 13.6638C7.20161 13.6675 7.10158 13.6514 7.0075 13.6165C6.91343 13.5815 6.82716 13.5284 6.75362 13.4601C6.68008 13.3918 6.62071 13.3097 6.5789 13.2185C6.53709 13.1272 6.51366 13.0287 6.50994 12.9284C6.50623 12.8281 6.5223 12.7281 6.55725 12.634C6.5922 12.5399 6.64533 12.4536 6.71362 12.3801L11.8436 7.2601C12.0319 7.07179 12.1377 6.8164 12.1377 6.5501C12.1377 6.28379 12.0319 6.0284 11.8436 5.8401C11.6553 5.65179 11.3999 5.546 11.1336 5.546C10.8673 5.546 10.6119 5.65179 10.4236 5.8401L5.29362 10.9801C5.03692 11.2348 4.83318 11.5378 4.69415 11.8716C4.55511 12.2054 4.48353 12.5635 4.48353 12.9251C4.48353 13.2867 4.55511 13.6448 4.69415 13.9786C4.83318 14.3124 5.03692 14.6154 5.29362 14.8701C5.81799 15.3696 6.51442 15.6482 7.23862 15.6482C7.96281 15.6482 8.65924 15.3696 9.18362 14.8701L16.0736 7.9701C16.8685 7.11705 17.3012 5.98877 17.2807 4.82296C17.2601 3.65715 16.7878 2.54484 15.9633 1.72036C15.1389 0.895886 14.0266 0.423614 12.8608 0.403045C11.6949 0.382476 10.5667 0.815215 9.71362 1.61009L1.71362 9.61009C0.634816 10.8049 0.0586452 12.3699 0.10515 13.9791C0.151655 15.5882 0.81725 17.1173 1.96326 18.2479C3.10926 19.3784 4.64729 20.0232 6.2569 20.0478C7.86651 20.0724 9.42355 19.475 10.6036 18.3801L16.7936 12.2001C16.8869 12.1069 16.9608 11.9962 17.0113 11.8743C17.0617 11.7525 17.0877 11.622 17.0877 11.4901C17.0877 11.3582 17.0617 11.2277 17.0113 11.1058C16.9608 10.984 16.8869 10.8733 16.7936 10.7801C16.7004 10.6869 16.5897 10.6129 16.4679 10.5624C16.346 10.512 16.2155 10.486 16.0836 10.486C15.9518 10.486 15.8212 10.512 15.6994 10.5624C15.5775 10.6129 15.4669 10.6869 15.3736 10.7801V10.8001Z" fill="#889988" fill-opacity="0.6"/>
</svg>
