<svg width="20" height="24" viewBox="0 0 20 24" fill="none" xmlns="http://www.w3.org/2000/svg">
<path d="M15.6879 16.6154V17.0203L15.9695 17.3111L17.9032 19.3077H1.16862L3.10231 17.3111L3.38398 17.0203V16.6154V10.4615C3.38398 6.99638 5.13123 4.35272 7.98557 3.65443L8.74793 3.46792V2.68308V1.84615C8.74793 1.34648 9.12879 1 9.53592 1C9.94305 1 10.3239 1.34648 10.3239 1.84615V2.68308V3.46727L11.0855 3.65424C13.9293 4.35239 15.6879 7.0096 15.6879 10.4615V16.6154ZM10.5413 22.5385C10.2833 22.8253 9.91987 23 9.53592 23C9.14678 23 8.78308 22.8257 8.52627 22.5385H10.5413Z" stroke="#505050" stroke-width="2"/>
</svg>
