<svg width="25" height="24" viewBox="0 0 25 24" fill="none" xmlns="http://www.w3.org/2000/svg">
<path d="M10.6978 12C10.6978 12.3956 10.8151 12.7822 11.0348 13.1111C11.2546 13.44 11.5669 13.6964 11.9324 13.8478C12.2978 13.9991 12.7 14.0387 13.0879 13.9616C13.4759 13.8844 13.8323 13.6939 14.112 13.4142C14.3917 13.1345 14.5822 12.7781 14.6593 12.3902C14.7365 12.0022 14.6969 11.6001 14.5455 11.2346C14.3941 10.8692 14.1378 10.5568 13.8089 10.3371C13.48 10.1173 13.0933 10 12.6978 10C12.1673 10 11.6586 10.2107 11.2835 10.5858C10.9085 10.9609 10.6978 11.4696 10.6978 12ZM10.6978 19C10.6978 19.3956 10.8151 19.7822 11.0348 20.1111C11.2546 20.44 11.5669 20.6964 11.9324 20.8478C12.2978 20.9991 12.7 21.0387 13.0879 20.9616C13.4759 20.8844 13.8323 20.6939 14.112 20.4142C14.3917 20.1345 14.5822 19.7781 14.6593 19.3902C14.7365 19.0022 14.6969 18.6001 14.5455 18.2346C14.3941 17.8692 14.1378 17.5568 13.8089 17.3371C13.48 17.1173 13.0933 17 12.6978 17C12.1673 17 11.6586 17.2107 11.2835 17.5858C10.9085 17.9609 10.6978 18.4696 10.6978 19ZM10.6978 5C10.6978 5.39556 10.8151 5.78224 11.0348 6.11114C11.2546 6.44004 11.5669 6.69638 11.9324 6.84776C12.2978 6.99913 12.7 7.03874 13.0879 6.96157C13.4759 6.8844 13.8323 6.69392 14.112 6.41421C14.3917 6.13451 14.5822 5.77814 14.6593 5.39018C14.7365 5.00222 14.6969 4.60008 14.5455 4.23463C14.3941 3.86918 14.1378 3.55682 13.8089 3.33706C13.48 3.1173 13.0933 3 12.6978 3C12.1673 3 11.6586 3.21071 11.2835 3.58579C10.9085 3.96086 10.6978 4.46957 10.6978 5Z" fill="#505050"/>
</svg>
