<svg width="24" height="20" viewBox="0 0 24 20" fill="none" xmlns="http://www.w3.org/2000/svg">
<path d="M24 2.55693C23.1172 2.94838 22.1676 3.21313 21.1718 3.33137C22.1886 2.72217 22.9689 1.75825 23.3372 0.607789C22.3858 1.17219 21.3315 1.58163 20.2104 1.80232C19.3122 0.845741 18.0325 0.247925 16.6154 0.247925C13.8966 0.247925 11.6915 2.45301 11.6915 5.17182C11.6915 5.55776 11.7352 5.93341 11.8197 6.29401C7.72753 6.08874 4.09915 4.12858 1.67043 1.14869C1.24667 1.87576 1.00358 2.72217 1.00358 3.62441C1.00358 5.33229 1.8735 6.84005 3.19398 7.72282C2.38722 7.69748 1.62747 7.47605 0.963922 7.10628C0.963555 7.12721 0.963554 7.14814 0.963554 7.1687C0.963554 9.55445 2.66153 11.5444 4.91361 11.9964C4.50087 12.1095 4.065 12.1693 3.61663 12.1693C3.29863 12.1693 2.99054 12.1389 2.69017 12.0816C3.31663 14.0373 5.13467 15.461 7.28982 15.501C5.60433 16.8219 3.4815 17.6088 1.17396 17.6088C0.777379 17.6088 0.384467 17.5857 0 17.5398C2.17791 18.9374 4.76673 19.7522 7.54723 19.7522C16.6041 19.7522 21.557 12.2494 21.557 5.7421C21.557 5.52875 21.5522 5.31613 21.5426 5.10536C22.5055 4.41133 23.3401 3.54435 24 2.55693Z" fill="white"/>
</svg>
