<svg width="171" height="30" viewBox="0 0 171 30" fill="none" xmlns="http://www.w3.org/2000/svg">
<path d="M16.76 29L7.32 16.6V29H0.48V0.919999H7.32V13.24L16.68 0.919999H24.72L13.84 14.68L25.12 29H16.76ZM27.0106 17.8C27.0106 15.5067 27.4373 13.4933 28.2906 11.76C29.1706 10.0267 30.3573 8.69333 31.8506 7.76C33.344 6.82667 35.0106 6.36 36.8506 6.36C38.424 6.36 39.7973 6.68 40.9706 7.32C42.1706 7.96 43.0906 8.8 43.7306 9.84V6.68H50.5706V29H43.7306V25.84C43.064 26.88 42.1306 27.72 40.9306 28.36C39.7573 29 38.384 29.32 36.8106 29.32C34.9973 29.32 33.344 28.8533 31.8506 27.92C30.3573 26.96 29.1706 25.6133 28.2906 23.88C27.4373 22.12 27.0106 20.0933 27.0106 17.8ZM43.7306 17.84C43.7306 16.1333 43.2506 14.7867 42.2906 13.8C41.3573 12.8133 40.2106 12.32 38.8506 12.32C37.4906 12.32 36.3306 12.8133 35.3706 13.8C34.4373 14.76 33.9706 16.0933 33.9706 17.8C33.9706 19.5067 34.4373 20.8667 35.3706 21.88C36.3306 22.8667 37.4906 23.36 38.8506 23.36C40.2106 23.36 41.3573 22.8667 42.2906 21.88C43.2506 20.8933 43.7306 19.5467 43.7306 17.84ZM69.1191 6.44C71.7324 6.44 73.8124 7.29333 75.3591 9C76.9324 10.68 77.7191 13 77.7191 15.96V29H70.9191V16.88C70.9191 15.3867 70.5324 14.2267 69.7591 13.4C68.9857 12.5733 67.9457 12.16 66.6391 12.16C65.3324 12.16 64.2924 12.5733 63.5191 13.4C62.7457 14.2267 62.3591 15.3867 62.3591 16.88V29H55.5191V6.68H62.3591V9.64C63.0524 8.65333 63.9857 7.88 65.1591 7.32C66.3324 6.73333 67.6524 6.44 69.1191 6.44ZM96.0722 6.44C98.6855 6.44 100.766 7.29333 102.312 9C103.886 10.68 104.672 13 104.672 15.96V29H97.8722V16.88C97.8722 15.3867 97.4855 14.2267 96.7122 13.4C95.9389 12.5733 94.8989 12.16 93.5922 12.16C92.2855 12.16 91.2455 12.5733 90.4722 13.4C89.6989 14.2267 89.3122 15.3867 89.3122 16.88V29H82.4722V6.68H89.3122V9.64C90.0055 8.65333 90.9389 7.88 92.1122 7.32C93.2855 6.73333 94.6055 6.44 96.0722 6.44ZM130.465 17.48C130.465 18.12 130.425 18.7867 130.345 19.48H114.865C114.972 20.8667 115.412 21.9333 116.185 22.68C116.985 23.4 117.959 23.76 119.105 23.76C120.812 23.76 121.999 23.04 122.665 21.6H129.945C129.572 23.0667 128.892 24.3867 127.905 25.56C126.945 26.7333 125.732 27.6533 124.265 28.32C122.799 28.9867 121.159 29.32 119.345 29.32C117.159 29.32 115.212 28.8533 113.505 27.92C111.799 26.9867 110.465 25.6533 109.505 23.92C108.545 22.1867 108.065 20.16 108.065 17.84C108.065 15.52 108.532 13.4933 109.465 11.76C110.425 10.0267 111.759 8.69333 113.465 7.76C115.172 6.82667 117.132 6.36 119.345 6.36C121.505 6.36 123.425 6.81333 125.105 7.72C126.785 8.62667 128.092 9.92 129.025 11.6C129.985 13.28 130.465 15.24 130.465 17.48ZM123.465 15.68C123.465 14.5067 123.065 13.5733 122.265 12.88C121.465 12.1867 120.465 11.84 119.265 11.84C118.119 11.84 117.145 12.1733 116.345 12.84C115.572 13.5067 115.092 14.4533 114.905 15.68H123.465ZM132.714 17.84C132.714 15.52 133.18 13.4933 134.114 11.76C135.074 10.0267 136.394 8.69333 138.074 7.76C139.78 6.82667 141.727 6.36 143.914 6.36C146.714 6.36 149.047 7.09333 150.914 8.56C152.807 10.0267 154.047 12.0933 154.634 14.76H147.354C146.74 13.0533 145.554 12.2 143.794 12.2C142.54 12.2 141.54 12.6933 140.794 13.68C140.047 14.64 139.674 16.0267 139.674 17.84C139.674 19.6533 140.047 21.0533 140.794 22.04C141.54 23 142.54 23.48 143.794 23.48C145.554 23.48 146.74 22.6267 147.354 20.92H154.634C154.047 23.5333 152.807 25.5867 150.914 27.08C149.02 28.5733 146.687 29.32 143.914 29.32C141.727 29.32 139.78 28.8533 138.074 27.92C136.394 26.9867 135.074 25.6533 134.114 23.92C133.18 22.1867 132.714 20.16 132.714 17.84ZM170.733 23.2V29H167.253C164.773 29 162.839 28.4 161.453 27.2C160.066 25.9733 159.373 23.9867 159.373 21.24V12.36H156.653V6.68H159.373V1.24H166.213V6.68H170.693V12.36H166.213V21.32C166.213 21.9867 166.373 22.4667 166.693 22.76C167.013 23.0533 167.546 23.2 168.293 23.2H170.733Z" fill="url(#paint0_linear_1_12)"/>
<defs>
<linearGradient id="paint0_linear_1_12" x1="25.7369" y1="15" x2="85.5" y2="15" gradientUnits="userSpaceOnUse">
<stop stop-color="#0997D9"/>
<stop offset="1" stop-color="#FF0090"/>
</linearGradient>
</defs>
</svg>
